<svg width="16" height="16" viewBox="0 0 16 16" fill="none" xmlns="http://www.w3.org/2000/svg">
<path d="M10.0833 14.0667L4.46666 8.46668C4.39999 8.40002 4.35288 8.32779 4.32533 8.25002C4.29733 8.17224 4.28333 8.08891 4.28333 8.00002C4.28333 7.91113 4.29733 7.82779 4.32533 7.75002C4.35288 7.67224 4.39999 7.60002 4.46666 7.53335L10.0833 1.91668C10.2389 1.76113 10.4333 1.68335 10.6667 1.68335C10.9 1.68335 11.1 1.76668 11.2667 1.93335C11.4333 2.10002 11.5167 2.29446 11.5167 2.51668C11.5167 2.73891 11.4333 2.93335 11.2667 3.10002L6.36666 8.00002L11.2667 12.9C11.4222 13.0556 11.5 13.2471 11.5 13.4747C11.5 13.7027 11.4167 13.9 11.25 14.0667C11.0833 14.2333 10.8889 14.3167 10.6667 14.3167C10.4444 14.3167 10.25 14.2333 10.0833 14.0667Z" fill="white"/>
</svg>
