<svg width="16" height="16" viewBox="0 0 16 16" fill="none" xmlns="http://www.w3.org/2000/svg">
<path d="M5.91668 1.93332L11.5333 7.53332C11.6 7.59998 11.6471 7.67221 11.6747 7.74998C11.7027 7.82776 11.7167 7.9111 11.7167 7.99998C11.7167 8.08887 11.7027 8.17221 11.6747 8.24998C11.6471 8.32776 11.6 8.39998 11.5333 8.46665L5.91668 14.0833C5.76112 14.2389 5.56668 14.3167 5.33334 14.3167C5.10001 14.3167 4.90001 14.2333 4.73334 14.0667C4.56668 13.9 4.48334 13.7055 4.48334 13.4833C4.48334 13.2611 4.56668 13.0667 4.73334 12.9L9.63334 7.99998L4.73334 3.09998C4.57779 2.94443 4.50001 2.75287 4.50001 2.52532C4.50001 2.29732 4.58334 2.09998 4.75001 1.93332C4.91668 1.76665 5.11112 1.68332 5.33334 1.68332C5.55556 1.68332 5.75001 1.76665 5.91668 1.93332Z" fill="#B292FF"/>
</svg>
