<svg width="20" height="21" viewBox="0 0 20 21" fill="none" xmlns="http://www.w3.org/2000/svg">
<path d="M11.3258 10.5L15.0368 6.78904C15.2129 6.61323 15.3119 6.37466 15.3122 6.12581C15.3124 5.87695 15.2137 5.63821 15.0379 5.46209C14.8621 5.28597 14.6235 5.1869 14.3747 5.18668C14.1258 5.18646 13.8871 5.28511 13.711 5.46092L10 9.17185L6.2891 5.46092C6.11298 5.2848 5.87411 5.18585 5.62504 5.18585C5.37597 5.18585 5.1371 5.2848 4.96098 5.46092C4.78486 5.63704 4.68591 5.87591 4.68591 6.12498C4.68591 6.37405 4.78486 6.61292 4.96098 6.78904L8.67191 10.5L4.96098 14.2109C4.78486 14.387 4.68591 14.6259 4.68591 14.875C4.68591 15.1241 4.78486 15.3629 4.96098 15.539C5.1371 15.7152 5.37597 15.8141 5.62504 15.8141C5.87411 15.8141 6.11298 15.7152 6.2891 15.539L10 11.8281L13.711 15.539C13.8871 15.7152 14.126 15.8141 14.375 15.8141C14.6241 15.8141 14.863 15.7152 15.0391 15.539C15.2152 15.3629 15.3142 15.1241 15.3142 14.875C15.3142 14.6259 15.2152 14.387 15.0391 14.2109L11.3258 10.5Z" fill="white"/>
</svg>
