<svg width="24" height="25" viewBox="0 0 24 25" fill="none" xmlns="http://www.w3.org/2000/svg">
<path opacity="0.6" d="M11.6665 2.5H8.33252C7.44842 2.5 6.60054 2.85121 5.97538 3.47636C5.35023 4.10151 4.99902 4.9494 4.99902 5.8335C4.99902 6.7176 5.35023 7.56549 5.97538 8.19064C6.60054 8.81579 7.44842 9.167 8.33252 9.167H11.6665V2.5Z" fill="#B292FF"/>
<path opacity="0.4" d="M11.667 9.16699H8.333C7.44903 9.16699 6.60127 9.51815 5.97621 10.1432C5.35115 10.7683 5 11.616 5 12.5C5 13.384 5.35115 14.2317 5.97621 14.8568C6.60127 15.4818 7.44903 15.833 8.333 15.833H11.667V9.16699Z" fill="#B292FF"/>
<path d="M18.333 12.5C18.333 13.3841 17.9818 14.232 17.3567 14.8571C16.7315 15.4823 15.8836 15.8335 14.9995 15.8335C14.1154 15.8335 13.2675 15.4823 12.6424 14.8571C12.0172 14.232 11.666 13.3841 11.666 12.5C11.666 11.6159 12.0172 10.768 12.6424 10.1429C13.2675 9.51771 14.1154 9.1665 14.9995 9.1665C15.8836 9.1665 16.7315 9.51771 17.3567 10.1429C17.9818 10.768 18.333 11.6159 18.333 12.5Z" fill="#B292FF"/>
<path opacity="0.2" d="M8.33298 15.834H11.667V19.167C11.6668 19.8261 11.4712 20.4704 11.1048 21.0183C10.7385 21.5663 10.218 21.9933 9.609 22.2455C9.00001 22.4976 8.32994 22.5636 7.6835 22.4349C7.03705 22.3063 6.44326 21.9889 5.97719 21.5228C5.51112 21.0567 5.19371 20.4629 5.06507 19.8165C4.93643 19.17 5.00235 18.5 5.2545 17.891C5.50664 17.282 5.93368 16.7614 6.48164 16.3951C7.02959 16.0288 7.67386 15.8342 8.33298 15.834Z" fill="#B292FF"/>
<path opacity="0.8" d="M11.666 2.5H14.999C15.8831 2.5 16.731 2.85121 17.3562 3.47636C17.9813 4.10151 18.3325 4.9494 18.3325 5.8335C18.3325 6.7176 17.9813 7.56549 17.3562 8.19064C16.731 8.81579 15.8831 9.167 14.999 9.167H11.666V2.5Z" fill="#B292FF"/>
</svg>
