<svg width="60" height="60" viewBox="0 0 60 60" fill="none" xmlns="http://www.w3.org/2000/svg">
<path d="M3.75 3.75H56.25V56.25H3.75V3.75Z" fill="#D9F431"/>
<path d="M39.0166 44.7656C39.464 45.6743 40.1589 46.438 41.0215 46.9688C41.884 47.4995 42.8789 47.7758 43.8916 47.7656C45.9354 47.7656 47.2423 46.7438 47.2423 45.3281C47.2423 43.6406 45.8998 43.0369 43.6498 42.0525L42.416 41.5238C38.8535 40.0069 36.491 38.1075 36.491 34.0913C36.491 30.3919 39.3035 27.5738 43.7154 27.5738C45.1436 27.4706 46.5705 27.7903 47.8183 28.4928C49.066 29.1954 50.0792 30.2497 50.7316 31.5244L46.8748 33.99C46.6236 33.358 46.1861 32.8173 45.6206 32.4395C45.055 32.0618 44.3879 31.8649 43.7079 31.875C43.4112 31.8453 43.1116 31.8777 42.8281 31.9702C42.5446 32.0627 42.2835 32.2133 42.0614 32.4122C41.8394 32.6112 41.6612 32.8543 41.5382 33.1259C41.4152 33.3976 41.3502 33.6918 41.3473 33.99C41.3473 35.4694 42.2641 36.0694 44.381 36.99L45.6148 37.5188C49.8073 39.3169 52.1773 41.1488 52.1773 45.2681C52.1773 49.71 48.6879 52.1438 44.0023 52.1438C42.1766 52.2601 40.3562 51.8456 38.7609 50.9503C37.1656 50.055 35.8635 48.7171 35.0116 47.0981L39.0166 44.7656ZM21.5885 45.1931C22.3629 46.5675 23.0679 47.73 24.7629 47.73C26.3829 47.73 27.4066 47.0963 27.4066 44.6306V27.855H32.3398V44.6963C32.3398 49.8038 29.3398 52.1288 24.9729 52.1288C23.4293 52.2131 21.8963 51.8285 20.5754 51.0253C19.2545 50.2221 18.2076 49.0381 17.5723 47.6288L21.5885 45.1931Z" fill="#120F1A"/>
</svg>
