<svg width="24" height="25" viewBox="0 0 24 25" fill="none" xmlns="http://www.w3.org/2000/svg">
<path d="M19 3.5C19.5304 3.5 20.0391 3.71071 20.4142 4.08579C20.7893 4.46086 21 4.96957 21 5.5V19.5C21 20.0304 20.7893 20.5391 20.4142 20.9142C20.0391 21.2893 19.5304 21.5 19 21.5H5C4.46957 21.5 3.96086 21.2893 3.58579 20.9142C3.21071 20.5391 3 20.0304 3 19.5V5.5C3 4.96957 3.21071 4.46086 3.58579 4.08579C3.96086 3.71071 4.46957 3.5 5 3.5H19ZM18.5 19V13.7C18.5 12.8354 18.1565 12.0062 17.5452 11.3948C16.9338 10.7835 16.1046 10.44 15.24 10.44C14.39 10.44 13.4 10.96 12.92 11.74V10.63H10.13V19H12.92V14.07C12.92 13.3 13.54 12.67 14.31 12.67C14.6813 12.67 15.0374 12.8175 15.2999 13.0801C15.5625 13.3426 15.71 13.6987 15.71 14.07V19H18.5ZM6.88 9.06C7.32556 9.06 7.75288 8.883 8.06794 8.56794C8.383 8.25288 8.56 7.82556 8.56 7.38C8.56 6.45 7.81 5.69 6.88 5.69C6.43178 5.69 6.00193 5.86805 5.68499 6.18499C5.36805 6.50193 5.19 6.93178 5.19 7.38C5.19 8.31 5.95 9.06 6.88 9.06ZM8.27 19V10.63H5.5V19H8.27Z" fill="#B292FF"/>
</svg>
