<svg width="24" height="25" viewBox="0 0 24 25" fill="none" xmlns="http://www.w3.org/2000/svg">
<path d="M4 20.5C3.45 20.5 2.97933 20.3043 2.588 19.913C2.196 19.521 2 19.05 2 18.5V6.5C2 5.95 2.196 5.47933 2.588 5.088C2.97933 4.696 3.45 4.5 4 4.5H20C20.55 4.5 21.021 4.696 21.413 5.088C21.8043 5.47933 22 5.95 22 6.5V18.5C22 19.05 21.8043 19.521 21.413 19.913C21.021 20.3043 20.55 20.5 20 20.5H4ZM12 13.325C12.0833 13.325 12.1707 13.3123 12.262 13.287C12.354 13.2623 12.4417 13.225 12.525 13.175L19.6 8.75C19.7333 8.66667 19.8333 8.56267 19.9 8.438C19.9667 8.31267 20 8.175 20 8.025C20 7.69167 19.8583 7.44167 19.575 7.275C19.2917 7.10833 19 7.11667 18.7 7.3L12 11.5L5.3 7.3C5 7.11667 4.70833 7.11233 4.425 7.287C4.14167 7.46233 4 7.70833 4 8.025C4 8.19167 4.03333 8.33733 4.1 8.462C4.16667 8.58733 4.26667 8.68333 4.4 8.75L11.475 13.175C11.5583 13.225 11.646 13.2623 11.738 13.287C11.8293 13.3123 11.9167 13.325 12 13.325Z" fill="#B292FF"/>
</svg>
