<svg width="24" height="25" viewBox="0 0 24 25" fill="none" xmlns="http://www.w3.org/2000/svg">
<g clip-path="url(#clip0_698_39)">
<path d="M8 6.5C9.5913 6.5 11.1174 7.13214 12.2426 8.25736C13.3679 9.38258 14 10.9087 14 12.5C14 14.0913 13.3679 15.6174 12.2426 16.7426C11.1174 17.8679 9.5913 18.5 8 18.5C6.4087 18.5 4.88258 17.8679 3.75736 16.7426C2.63214 15.6174 2 14.0913 2 12.5C2 10.9087 2.63214 9.38258 3.75736 8.25736C4.88258 7.13214 6.4087 6.5 8 6.5ZM17 7.5C18.5 7.5 19.5 9.739 19.5 12.5C19.5 15.261 18.5 17.5 17 17.5C15.5 17.5 14.5 15.261 14.5 12.5C14.5 9.739 15.5 7.5 17 7.5ZM21 8C21.38 8 21.712 8.827 21.88 10.246L21.927 10.689L21.946 10.924L21.976 11.418L21.986 11.677L21.998 12.218L22 12.5L21.998 12.782L21.986 13.323L21.976 13.583L21.946 14.076L21.926 14.311L21.881 14.754C21.712 16.174 21.381 17 21 17C20.62 17 20.288 16.173 20.12 14.754L20.073 14.311C20.0661 14.2327 20.0598 14.1544 20.054 14.076L20.024 13.582C20.0201 13.4957 20.0168 13.4094 20.014 13.323L20.002 12.782V12.218L20.014 11.677L20.024 11.417L20.054 10.924L20.074 10.689L20.119 10.246C20.288 8.826 20.619 8 21 8Z" fill="#B292FF"/>
</g>
<defs>
<clipPath id="clip0_698_39">
<rect width="24" height="24" fill="white" transform="translate(0 0.5)"/>
</clipPath>
</defs>
</svg>
