<svg width="18" height="18" viewBox="0 0 18 18" fill="none" xmlns="http://www.w3.org/2000/svg">
<path d="M3 13.5H15C15.4125 13.5 15.75 13.1625 15.75 12.75C15.75 12.3375 15.4125 12 15 12H3C2.5875 12 2.25 12.3375 2.25 12.75C2.25 13.1625 2.5875 13.5 3 13.5ZM3 9.75H15C15.4125 9.75 15.75 9.4125 15.75 9C15.75 8.5875 15.4125 8.25 15 8.25H3C2.5875 8.25 2.25 8.5875 2.25 9C2.25 9.4125 2.5875 9.75 3 9.75ZM2.25 5.25C2.25 5.6625 2.5875 6 3 6H15C15.4125 6 15.75 5.6625 15.75 5.25C15.75 4.8375 15.4125 4.5 15 4.5H3C2.5875 4.5 2.25 4.8375 2.25 5.25Z" fill="#5FB9B0"/>
</svg>
