<svg width="52" height="54" viewBox="0 0 52 54" fill="none" xmlns="http://www.w3.org/2000/svg">
<path d="M25.9997 22.5493C28.2313 22.5493 30.0513 24.4228 30.0513 26.7647C30.0513 28.9951 28.2313 30.8909 25.9997 30.8909C23.768 30.8909 21.948 28.9951 21.948 26.7647C21.948 24.4228 23.768 22.5493 25.9997 22.5493ZM15.968 44.6078C17.333 45.4554 20.323 44.1618 23.768 40.8162C22.6413 39.5002 21.5363 38.0728 20.4963 36.5784C18.7503 36.4064 17.0145 36.1384 15.2963 35.7755C14.1913 40.5485 14.603 43.8272 15.968 44.6078M17.5063 31.8054L16.878 30.6679C16.6397 31.3147 16.4013 31.9615 16.2497 32.586C16.8347 32.7198 17.4847 32.8314 18.1563 32.9429L17.5063 31.8054ZM31.6763 30.1103L33.4313 26.7647L31.6763 23.4191C31.0263 22.237 30.333 21.1887 29.7047 20.1404C28.5347 20.0735 27.2997 20.0735 25.9997 20.0735C24.6997 20.0735 23.4647 20.0735 22.2947 20.1404C21.6663 21.1887 20.973 22.237 20.323 23.4191L18.568 26.7647L20.323 30.1103C20.973 31.2924 21.6663 32.3407 22.2947 33.389C23.4647 33.4559 24.6997 33.4559 25.9997 33.4559C27.2997 33.4559 28.5347 33.4559 29.7047 33.389C30.333 32.3407 31.0263 31.2924 31.6763 30.1103M25.9997 15.1221C25.588 15.6127 25.1547 16.1257 24.7213 16.7279H27.278C26.8447 16.1257 26.4113 15.6127 25.9997 15.1221ZM25.9997 38.4073C26.4113 37.9167 26.8447 37.4037 27.278 36.8015H24.7213C25.1547 37.4037 25.588 37.9167 25.9997 38.4073ZM36.0097 8.92156C34.6663 8.07401 31.6763 9.36764 28.2313 12.7132C29.358 14.0292 30.463 15.4566 31.503 16.951C33.2797 17.1294 35.0347 17.397 36.703 17.7539C37.808 12.9809 37.3963 9.7022 36.0097 8.92156ZM34.493 21.724L35.1213 22.8615C35.3597 22.2147 35.598 21.5679 35.7497 20.9434C35.1647 20.8096 34.5147 20.698 33.843 20.5865L34.493 21.724M37.6347 5.99975C40.8197 7.87327 41.1663 12.8024 39.823 18.5569C45.3263 20.2296 49.2913 22.9953 49.2913 26.7647C49.2913 30.5341 45.3263 33.2997 39.823 34.9725C41.1663 40.727 40.8197 45.6561 37.6347 47.5296C34.4713 49.4032 30.1597 47.262 25.9997 43.1804C21.8397 47.262 17.528 49.4032 14.343 47.5296C11.1797 45.6561 10.833 40.727 12.1763 34.9725C6.67301 33.2997 2.70801 30.5341 2.70801 26.7647C2.70801 22.9953 6.67301 20.2296 12.1763 18.5569C10.833 12.8024 11.1797 7.87327 14.343 5.99975C17.528 4.12622 21.8397 6.26739 25.9997 10.349C30.1597 6.26739 34.4713 4.12622 37.6347 5.99975ZM37.0063 26.7647C37.743 28.4375 38.393 30.1103 38.9347 31.8054C43.4847 30.4002 46.0413 28.3929 46.0413 26.7647C46.0413 25.1365 43.4847 23.1292 38.9347 21.724C38.393 23.4191 37.743 25.0919 37.0063 26.7647ZM14.993 26.7647C14.2563 25.0919 13.6063 23.4191 13.0647 21.724C8.51467 23.1292 5.95801 25.1365 5.95801 26.7647C5.95801 28.3929 8.51467 30.4002 13.0647 31.8054C13.6063 30.1103 14.2563 28.4375 14.993 26.7647ZM34.493 31.8054L33.843 32.9429C34.5147 32.8314 35.1647 32.7198 35.7497 32.586C35.598 31.9615 35.3597 31.3147 35.1213 30.6679L34.493 31.8054M28.2313 40.8162C31.6763 44.1618 34.6663 45.4554 36.0097 44.6078C37.3963 43.8272 37.808 40.5485 36.703 35.7755C35.0347 36.1323 33.2797 36.4 31.503 36.5784C30.463 38.0728 29.358 39.5002 28.2313 40.8162M17.5063 21.724L18.1563 20.5865C17.4847 20.698 16.8347 20.8096 16.2497 20.9434C16.4013 21.5679 16.6397 22.2147 16.878 22.8615L17.5063 21.724ZM23.768 12.7132C20.323 9.36764 17.333 8.07401 15.968 8.92156C14.603 9.7022 14.1913 12.9809 15.2963 17.7539C17.0145 17.391 18.7503 17.123 20.4963 16.951C21.5363 15.4566 22.6413 14.0292 23.768 12.7132V12.7132Z" fill="#61DBFB"/>
</svg>
