<svg width="20" height="21" viewBox="0 0 20 21" fill="none" xmlns="http://www.w3.org/2000/svg">
<g clip-path="url(#clip0_16_16)">
<path d="M9.99609 5.22266L10.3516 4.60938C10.5703 4.22656 11.0586 4.09766 11.4414 4.31641C11.8242 4.53516 11.9531 5.02344 11.7344 5.40625L8.31641 11.3242H10.7891C11.5898 11.3242 12.0391 12.2656 11.6914 12.918H4.44531C4.00391 12.918 3.64844 12.5625 3.64844 12.1211C3.64844 11.6797 4.00391 11.3242 4.44531 11.3242H6.47656L9.07812 6.81641L8.26562 5.40625C8.04688 5.02344 8.17578 4.53906 8.55859 4.31641C8.94141 4.09766 9.42578 4.22656 9.64844 4.60938L9.99609 5.22266ZM6.92188 13.7383L6.15625 15.0664C5.9375 15.4492 5.44922 15.5781 5.06641 15.3594C4.68359 15.1406 4.55469 14.6523 4.77344 14.2695L5.34375 13.2852C5.98438 13.0859 6.50781 13.2383 6.92188 13.7383ZM13.5195 11.3281H15.5938C16.0352 11.3281 16.3906 11.6836 16.3906 12.125C16.3906 12.5664 16.0352 12.9219 15.5938 12.9219H14.4414L15.2188 14.2695C15.4375 14.6523 15.3086 15.1367 14.9258 15.3594C14.543 15.5781 14.0586 15.4492 13.8359 15.0664C12.5273 12.7969 11.543 11.0977 10.8906 9.96484C10.2227 8.8125 10.6992 7.65625 11.1719 7.26562C11.6953 8.16406 12.4766 9.51953 13.5195 11.3281ZM10 0.8125C4.64844 0.8125 0.3125 5.14844 0.3125 10.5C0.3125 15.8516 4.64844 20.1875 10 20.1875C15.3516 20.1875 19.6875 15.8516 19.6875 10.5C19.6875 5.14844 15.3516 0.8125 10 0.8125ZM18.4375 10.5C18.4375 15.1367 14.6836 18.9375 10 18.9375C5.36328 18.9375 1.5625 15.1836 1.5625 10.5C1.5625 5.86328 5.31641 2.0625 10 2.0625C14.6367 2.0625 18.4375 5.81641 18.4375 10.5Z" fill="white"/>
</g>
<defs>
<clipPath id="clip0_16_16">
<rect width="20" height="20" fill="white" transform="translate(0 0.5)"/>
</clipPath>
</defs>
</svg>
