<svg width="20" height="15" viewBox="0 0 20 15" fill="none" xmlns="http://www.w3.org/2000/svg">
<g clip-path="url(#clip0_16_42)">
<path d="M19.5872 5.50758C19.1368 5.19508 18.1047 5.07789 17.2978 5.23414C17.2041 4.45289 16.7724 3.76938 16.0218 3.16391L15.5902 2.85141L15.2899 3.30063C14.9147 3.88656 14.727 4.70687 14.7833 5.48812C14.802 5.76148 14.8959 6.24977 15.1773 6.67945C14.9147 6.8357 14.3705 7.03102 13.6574 7.03102H0.0902284L0.0527284 7.18727C-0.0786779 7.96844 -0.0786779 10.4098 1.46007 12.2847C2.62351 13.7104 4.34992 14.433 6.62046 14.433C11.5369 14.433 15.1773 12.0698 16.885 7.79266C17.5605 7.81219 19.0055 7.79266 19.7373 6.32781C19.7561 6.28875 19.7936 6.21063 19.9249 5.91773L20 5.76148L19.5872 5.50758ZM10.9364 0H8.87234V1.95305H10.9364V0ZM10.9364 2.34367H8.87234V4.29672H10.9364V2.34359V2.34367ZM8.49695 2.34367H6.43288V4.29672H8.49695V2.34359V2.34367ZM6.05749 2.34367H3.99335V4.29672H6.05749V2.34359V2.34367ZM3.61804 4.68734H1.5539V6.64039H3.61796V4.68727L3.61804 4.68734ZM6.05749 4.68734H3.99335V6.64039H6.05749V4.68727V4.68734ZM8.49695 4.68734H6.43288V6.64039H8.49695V4.68727V4.68734ZM10.9365 4.68734H8.87226V6.64039H10.9365V4.68727V4.68734ZM13.3759 4.68734H11.3117V6.64039H13.3759V4.68727V4.68734Z" fill="#2396ED"/>
</g>
<defs>
<clipPath id="clip0_16_42">
<rect width="20" height="14.4531" fill="white"/>
</clipPath>
</defs>
</svg>
