<svg width="10" height="16" viewBox="0 0 10 16" fill="none" xmlns="http://www.w3.org/2000/svg">
<g clip-path="url(#clip0_13_103)">
<path d="M2.5 15.5C3.88 15.5 5 14.38 5 13V10.5H2.5C1.12 10.5 0 11.62 0 13C0 14.38 1.12 15.5 2.5 15.5Z" fill="#0ACF83"/>
<path d="M0 8C0 6.62 1.12 5.5 2.5 5.5H5V10.5H2.5C1.12 10.5 0 9.38 0 8Z" fill="#A259FF"/>
<path d="M0 3C0 1.62 1.12 0.5 2.5 0.5H5V5.5H2.5C1.12 5.5 0 4.38 0 3Z" fill="#F24E1E"/>
<path d="M5 0.5H7.5C8.88 0.5 10 1.62 10 3C10 4.38 8.88 5.5 7.5 5.5H5V0.5Z" fill="#FF7262"/>
<path d="M10 8C10 9.38 8.88 10.5 7.5 10.5C6.12 10.5 5 9.38 5 8C5 6.62 6.12 5.5 7.5 5.5C8.88 5.5 10 6.62 10 8Z" fill="#1ABCFE"/>
</g>
<defs>
<clipPath id="clip0_13_103">
<rect width="10" height="15" fill="white" transform="translate(0 0.5)"/>
</clipPath>
</defs>
</svg>
