<svg width="20" height="20" viewBox="0 0 20 20" fill="none" xmlns="http://www.w3.org/2000/svg">
<g clip-path="url(#clip0_13_136)">
<path d="M4.18781 0C6.50063 0 8.37562 1.87438 8.37562 4.18672C8.37562 6.45937 6.56398 8.30781 4.30586 8.37055C4.30586 8.56281 4.31437 8.92609 4.42313 9.14555C4.57414 9.44969 5.47977 10.0162 6.36781 10.0162H6.68688C6.88742 8.58875 8.1132 7.49023 9.59625 7.49023C11.0733 7.49023 12.2955 8.57977 12.5034 9.99883H14.1541C14.362 8.57977 15.5841 7.49023 17.0612 7.49023C18.6842 7.49023 20 8.80562 20 10.4283C20 12.0509 18.6842 13.3663 17.0612 13.3663C15.5841 13.3663 14.362 12.2766 14.1541 10.8577H12.5034C12.2956 12.2766 11.0734 13.3663 9.59625 13.3663C8.12203 13.3663 6.90141 12.2809 6.69008 10.8657L6.33734 10.8763C5.75648 10.8719 5.14281 10.7167 4.65 10.3819C4.51562 10.2905 4.3832 10.1946 4.24516 10.1038V10.2945C4.24438 10.3562 4.2332 11.2833 4.23234 12.3127V12.5306C4.23273 13.2057 4.23805 13.9013 4.25398 14.4088C4.28883 15.5217 5.19414 16.4201 6.1932 16.6303C6.32313 16.6577 6.54633 16.6611 6.68703 16.6489C6.88789 15.222 8.11359 14.1239 9.59625 14.1239C11.2192 14.1239 12.535 15.4394 12.535 17.062C12.535 18.6846 11.2192 20 9.59625 20C8.12992 20 6.91477 18.9263 6.69367 17.5223H6.43945C4.53039 17.4181 3.34352 15.6672 3.36422 14.2471C3.39031 12.4598 3.37063 10.6718 3.37039 8.88414V8.29313C1.44891 7.91297 0 6.21922 0 4.1868C0 1.87437 1.87492 0 4.18781 0ZM9.59625 14.9828C8.44773 14.9828 7.51656 15.9137 7.51656 17.062C7.51656 18.2103 8.44773 19.1412 9.59625 19.1412C10.7448 19.1412 11.6759 18.2103 11.6759 17.062C11.6759 15.9137 10.7448 14.9827 9.59625 14.9827V14.9828ZM9.59625 8.34906C8.44773 8.34906 7.51656 9.27992 7.51656 10.4283C7.51656 11.5765 8.44773 12.5074 9.59625 12.5074C10.7448 12.5074 11.6759 11.5765 11.6759 10.4283C11.6759 9.27992 10.7448 8.34906 9.59625 8.34906ZM17.0612 8.34906C15.9126 8.34906 14.9815 9.27992 14.9815 10.4283C14.9815 11.5765 15.9126 12.5074 17.0612 12.5074C18.2098 12.5074 19.1409 11.5765 19.1409 10.4283C19.1409 9.27992 18.2098 8.34906 17.0613 8.34906H17.0612ZM18.2456 9.55281C18.3241 9.63102 18.3692 9.73652 18.3717 9.84725C18.3742 9.95799 18.3338 10.0654 18.2589 10.147L18.2464 10.1602L16.9722 11.4371C16.8943 11.5151 16.7895 11.5602 16.6793 11.5631C16.5692 11.566 16.4621 11.5264 16.3803 11.4526L16.3669 11.4398L15.743 10.8258C15.7029 10.7862 15.6709 10.7391 15.6489 10.6872C15.6269 10.6353 15.6154 10.5795 15.6149 10.5231C15.6145 10.4667 15.6252 10.4108 15.6463 10.3585C15.6675 10.3063 15.6988 10.2587 15.7384 10.2185C15.8161 10.1396 15.9213 10.0938 16.032 10.0906C16.1427 10.0873 16.2504 10.127 16.3326 10.2013L16.3457 10.2138L16.6654 10.5284L17.6382 9.55367C17.7187 9.47302 17.8278 9.42763 17.9418 9.42749C18.0557 9.42734 18.165 9.47245 18.2456 9.55289V9.55281ZM10.7464 9.54656C10.8248 9.62478 10.87 9.73027 10.8725 9.841C10.8749 9.95173 10.8345 10.0591 10.7597 10.1408L10.7472 10.1539L9.47297 11.4308C9.39512 11.5088 9.29028 11.5539 9.18012 11.5568C9.06996 11.5596 8.96291 11.5201 8.88109 11.4462L8.86766 11.4335L8.24383 10.8195C8.16475 10.7404 8.11961 10.6337 8.11799 10.5219C8.11637 10.4101 8.15841 10.3021 8.23516 10.2208C8.31192 10.1395 8.41735 10.0913 8.52905 10.0865C8.64075 10.0817 8.74992 10.1207 8.83336 10.1951L8.84648 10.2076L9.16625 10.5222L10.139 9.54734C10.2194 9.46671 10.3286 9.42134 10.4425 9.42119C10.5564 9.42105 10.6657 9.46614 10.7464 9.54656ZM4.18781 0.858828C2.34938 0.858828 0.859063 2.34867 0.859063 4.1868C0.859063 6.02469 2.34938 7.51469 4.18781 7.51469C6.02625 7.51469 7.51656 6.02469 7.51656 4.1868C7.51656 2.34875 6.02625 0.858828 4.18781 0.858828ZM3.84148 2.19766C4.54144 2.61822 5.23246 3.0535 5.91406 3.5032C6.485 3.87977 6.48359 4.56281 5.90625 4.94023C5.21311 5.39379 4.50823 5.82914 3.79234 6.24586C3.20992 6.58492 2.55797 6.19508 2.54219 5.51586C2.53203 5.0782 2.54031 4.64008 2.53969 4.20203C2.53922 3.77594 2.53086 3.34961 2.54117 2.92367C2.55852 2.20117 3.22367 1.82477 3.84141 2.19766H3.84148ZM3.37977 2.89078V3.19297L3.37969 3.63625L3.37961 3.92609V4.35437C3.37961 4.68484 3.37977 5.01016 3.38039 5.33539C3.38063 5.48852 3.46031 5.48227 3.56344 5.41844C4.15758 5.05016 4.75203 4.68227 5.3468 4.31477C5.44508 4.25414 5.44789 4.19078 5.35148 4.13C4.71445 3.72852 4.07664 3.32844 3.37977 2.89078Z" fill="white"/>
<path d="M10.4084 17.4906C10.4648 17.4906 10.5206 17.4795 10.5727 17.4579C10.6248 17.4364 10.6722 17.4047 10.7121 17.3648C10.752 17.325 10.7836 17.2776 10.8052 17.2255C10.8268 17.1734 10.8379 17.1175 10.8379 17.0611C10.8379 17.0047 10.8268 16.9489 10.8052 16.8968C10.7837 16.8446 10.752 16.7973 10.7121 16.7574C10.6723 16.7175 10.6249 16.6859 10.5728 16.6643C10.5207 16.6427 10.4648 16.6316 10.4084 16.6316C10.2945 16.6316 10.1853 16.6768 10.1047 16.7574C10.0242 16.8379 9.97894 16.9471 9.97894 17.0611C9.97894 17.175 10.0242 17.2842 10.1047 17.3647C10.1853 17.4453 10.2945 17.4905 10.4084 17.4905M8.76398 17.4906C8.8779 17.4906 8.98715 17.4454 9.0677 17.3648C9.14826 17.2843 9.19351 17.175 9.19351 17.0611C9.19351 16.9472 9.14826 16.8379 9.0677 16.7574C8.98715 16.6768 8.8779 16.6316 8.76398 16.6316C8.65007 16.6316 8.54083 16.6768 8.46028 16.7574C8.37974 16.8379 8.33449 16.9471 8.33449 17.0611C8.33449 17.175 8.37974 17.2842 8.46028 17.3647C8.54083 17.4453 8.65007 17.4905 8.76398 17.4905M17.0612 19.1412C15.9127 19.1412 14.9816 18.2103 14.9816 17.0619C14.9816 15.9137 15.9127 14.9827 17.0612 14.9827C18.2098 14.9827 19.1409 15.9137 19.1409 17.0619C19.1409 18.2103 18.2098 19.1412 17.0612 19.1412ZM17.0612 14.124C15.5842 14.124 14.362 15.2136 14.1541 16.6326H13.6734C13.4637 16.6326 13.2934 16.8248 13.2934 17.0619C13.2934 17.2991 13.4637 17.4914 13.6734 17.4914H14.1541C14.3619 18.9104 15.5842 20 17.0612 20C18.6843 20 20 18.6845 20 17.0619C20 15.4393 18.6842 14.1239 17.0612 14.1239" fill="white"/>
</g>
<defs>
<clipPath id="clip0_13_136">
<rect width="20" height="20" fill="white"/>
</clipPath>
</defs>
</svg>
