<svg width="16" height="18" viewBox="0 0 16 18" fill="none" xmlns="http://www.w3.org/2000/svg">
<path d="M0 1.54326V16.4562C9.99086e-05 16.4886 0.00974991 16.5202 0.02774 16.5471C0.04573 16.574 0.0712592 16.5949 0.101126 16.6074C0.130994 16.6198 0.163869 16.6232 0.195631 16.617C0.227392 16.6108 0.256625 16.5954 0.279665 16.5727L8.04464 9.00011L0.279665 1.42676C0.256625 1.40405 0.227392 1.38864 0.195631 1.38247C0.163869 1.37631 0.130994 1.37965 0.101126 1.39209C0.0712592 1.40453 0.04573 1.42552 0.02774 1.45241C0.00974991 1.4793 9.99086e-05 1.51091 0 1.54326ZM11.3004 5.88851L1.56415 0.524399L1.55808 0.520984C1.39036 0.429912 1.23098 0.656832 1.36835 0.788886L9.00051 8.08674L11.3004 5.88851ZM1.36911 17.2113C1.23098 17.3434 1.39036 17.5703 1.55884 17.4792L1.56491 17.4758L11.3004 12.1117L9.00051 9.91272L1.36911 17.2113ZM15.2309 8.05145L12.5121 6.55409L9.95562 9.00011L12.5121 11.445L15.2309 9.94877C15.9705 9.54009 15.9705 8.46014 15.2309 8.05145Z" fill="white"/>
</svg>
