<svg width="20" height="20" viewBox="0 0 20 20" fill="none" xmlns="http://www.w3.org/2000/svg">
<path d="M16.9306 9.86626C16.9306 9.43429 16.759 9.02001 16.4536 8.71456C16.1481 8.40911 15.7339 8.23751 15.3019 8.23751C15.2447 8.23745 15.1875 8.24037 15.1306 8.24626L17.3681 1.64751H7.86001L10.0944 8.24063C10.0619 8.24063 10.0288 8.23751 9.99564 8.23751C9.60669 8.23706 9.23042 8.37582 8.93489 8.62868C8.63936 8.88154 8.44407 9.23181 8.38434 9.61615C8.32461 10.0005 8.40439 10.3935 8.60925 10.7241C8.81411 11.0547 9.13052 11.3011 9.50126 11.4188C9.15479 12.0153 8.7234 12.5583 8.22064 13.0306C7.56618 13.6563 6.78864 14.1388 5.93751 14.4475C5.46064 14.2215 5.08768 13.8225 4.8944 13.3314C4.70112 12.8404 4.70201 12.2942 4.89689 11.8038C4.94501 11.6913 4.99376 11.5775 5.04001 11.4638C5.40317 11.3782 5.72598 11.1707 5.95449 10.8757C6.183 10.5808 6.30338 10.2164 6.29551 9.8434C6.28764 9.47039 6.152 9.11138 5.91125 8.82636C5.6705 8.54134 5.33923 8.34757 4.97278 8.27744C4.60634 8.20731 4.22693 8.26506 3.89795 8.44104C3.56897 8.61702 3.31035 8.90057 3.1653 9.24432C3.02025 9.58806 2.99757 9.97117 3.10103 10.3296C3.2045 10.6881 3.42785 11.0002 3.73376 11.2138C3.21386 12.1564 2.81708 13.1619 2.55314 14.2056C2.33189 15.54 2.55314 16.9556 3.70626 17.7563C6.39376 19.6194 9.31189 16.6013 12.3881 15.8431C13.5031 15.5681 14.7269 15.6125 15.7088 15.0438C16.0635 14.8417 16.3694 14.5641 16.6048 14.2305C16.8401 13.897 16.9992 13.5157 17.0706 13.1138C17.136 12.7308 17.1237 12.3385 17.0344 11.9604C16.9452 11.5823 16.7809 11.2259 16.5513 10.9125C16.7963 10.6197 16.9304 10.2499 16.93 9.86813L16.9306 9.86626ZM11.625 9.87501V9.86938C11.6255 9.58909 11.5534 9.31345 11.4159 9.06923C11.2783 8.82501 11.0799 8.62052 10.84 8.47563L12.6175 4.87501L14.3988 8.50876C14.1753 8.65725 13.9921 8.85877 13.8655 9.09531C13.7388 9.33186 13.6728 9.59608 13.6731 9.86438V9.90001L11.625 9.87501Z" fill="#C63D14"/>
<path d="M17.3288 9.86625C17.3281 9.39399 17.1628 8.93673 16.8613 8.57326C16.5597 8.20978 16.1409 7.96285 15.6769 7.875L17.9231 1.25H7.30563L9.55563 7.88813C9.16282 7.97592 8.80508 8.17875 8.52805 8.47073C8.25101 8.76271 8.06724 9.1306 8.00018 9.52747C7.93312 9.92434 7.98581 10.3322 8.15153 10.699C8.31725 11.0658 8.58848 11.3749 8.93063 11.5869C8.64798 12.0068 8.31927 12.3938 7.95063 12.7406C7.37999 13.2866 6.70941 13.7174 5.97563 14.0094C5.63127 13.8095 5.37023 13.4925 5.24013 13.1161C5.11002 12.7398 5.11951 12.3293 5.26688 11.9594L5.29188 11.9012L5.33813 11.7919C5.75468 11.6475 6.11283 11.3712 6.35834 11.005C6.60385 10.6388 6.72334 10.2026 6.69873 9.76243C6.67412 9.32224 6.50674 8.90206 6.22194 8.56551C5.93714 8.22897 5.55043 7.99439 5.12038 7.89731C4.69032 7.80022 4.24034 7.84592 3.83858 8.02747C3.43682 8.20903 3.10516 8.51655 2.89383 8.90348C2.6825 9.29041 2.603 9.73566 2.66738 10.1718C2.73177 10.608 2.93651 11.0113 3.25063 11.3206C3.18313 11.465 3.11188 11.6113 3.03875 11.7619C2.63352 12.507 2.33877 13.307 2.16375 14.1369C1.87313 15.8869 2.34188 17.2888 3.48313 18.0794C4.09578 18.5175 4.83057 18.7521 5.58375 18.75C6.91625 18.75 8.26438 18.0806 9.58375 17.4256C10.5056 16.9243 11.4781 16.5224 12.485 16.2269C12.8456 16.1381 13.2169 16.0844 13.61 16.0275C14.4109 15.9635 15.1919 15.7453 15.91 15.385C16.315 15.1537 16.6641 14.8361 16.9327 14.4549C17.2014 14.0736 17.3828 13.638 17.4644 13.1788C17.5972 12.3986 17.4438 11.5967 17.0325 10.9206C17.2271 10.6032 17.3298 10.238 17.3294 9.86562L17.3288 9.86625ZM16.5331 9.86625C16.5331 10.1098 16.4609 10.3478 16.3256 10.5503C16.1903 10.7528 15.998 10.9106 15.7731 11.0038C15.5481 11.097 15.3005 11.1214 15.0617 11.0738C14.8228 11.0263 14.6034 10.9091 14.4313 10.7369C14.2591 10.5647 14.1418 10.3453 14.0943 10.1065C14.0468 9.86762 14.0712 9.62005 14.1643 9.39507C14.2575 9.17009 14.4154 8.97779 14.6178 8.8425C14.8203 8.70721 15.0584 8.635 15.3019 8.635C15.6283 8.63533 15.9413 8.76516 16.1721 8.99599C16.403 9.22682 16.5328 9.5398 16.5331 9.86625ZM16.8125 2.04563L14.8288 7.89563C14.7438 7.91618 14.6603 7.94227 14.5788 7.97375L12.6194 3.97375L10.6538 7.95C10.5682 7.92035 10.4807 7.89654 10.3919 7.87875L8.415 2.04563H16.8125ZM9.99563 8.635C10.2391 8.635 10.4772 8.70721 10.6797 8.8425C10.8821 8.97779 11.04 9.17009 11.1332 9.39507C11.2263 9.62005 11.2507 9.86762 11.2032 10.1065C11.1557 10.3453 11.0384 10.5647 10.8663 10.7369C10.6941 10.9091 10.4747 11.0263 10.2358 11.0738C9.99699 11.1214 9.74943 11.097 9.52445 11.0038C9.29947 10.9106 9.10717 10.7528 8.97188 10.5503C8.83659 10.3478 8.76438 10.1098 8.76438 9.86625C8.76471 9.5398 8.89453 9.22682 9.12537 8.99599C9.3562 8.76516 9.66918 8.63533 9.99563 8.635ZM4.66938 8.64688C4.913 8.647 5.15111 8.7194 5.35358 8.8549C5.55604 8.99041 5.71375 9.18293 5.80675 9.4081C5.89975 9.63328 5.92386 9.88098 5.87603 10.1199C5.8282 10.3587 5.71057 10.5781 5.53804 10.7501C5.36551 10.9221 5.14583 11.039 4.9068 11.0861C4.66778 11.1332 4.42015 11.1084 4.19526 11.0147C3.97037 10.921 3.77833 10.7627 3.64344 10.5598C3.50855 10.357 3.43688 10.1186 3.4375 9.875C3.43783 9.54855 3.56766 9.23557 3.79849 9.00474C4.02932 8.77391 4.3423 8.64408 4.66875 8.64375L4.66938 8.64688ZM16.68 13.0431C16.6182 13.3876 16.4815 13.7144 16.2794 14.0001C16.0773 14.2859 15.8148 14.5238 15.5106 14.6969C14.8794 15.0033 14.196 15.1876 13.4963 15.24C13.1013 15.2969 12.6931 15.3556 12.2938 15.4544C11.2306 15.7622 10.2038 16.1841 9.23125 16.7125C7.25375 17.6944 5.54375 18.5425 3.93625 17.4269C2.75688 16.6094 2.81125 15.0969 2.94875 14.2681C3.11056 13.5139 3.38043 12.7871 3.75 12.11L3.91875 11.7606C4.08663 11.8277 4.26281 11.8719 4.4425 11.8919C4.28343 12.4537 4.32788 13.0537 4.568 13.586C4.80813 14.1183 5.22851 14.5487 5.755 14.8012L5.90813 14.88L6.07 14.8225C6.97293 14.4966 7.79784 13.9857 8.49188 13.3225C8.95032 12.8912 9.35303 12.4043 9.69063 11.8731C10.1226 11.9388 10.5642 11.8631 10.9496 11.6572C11.335 11.4514 11.6435 11.1265 11.8291 10.7309C12.0146 10.3354 12.0673 9.8904 11.9793 9.46244C11.8913 9.03448 11.6673 8.64645 11.3406 8.35625L12.6144 5.78062L13.9013 8.40563C13.5351 8.75849 13.3151 9.2362 13.285 9.74382C13.2549 10.2514 13.4169 10.7518 13.7387 11.1455C14.0606 11.5391 14.5188 11.7973 15.0223 11.8687C15.5258 11.94 16.0377 11.8194 16.4563 11.5306C16.6883 11.9991 16.766 12.529 16.6781 13.0444L16.68 13.0431Z" fill="white"/>
</svg>
