<svg width="20" height="20" viewBox="0 0 20 20" fill="none" xmlns="http://www.w3.org/2000/svg">
<path d="M1.25 1.25H18.75V18.75H1.25V1.25Z" fill="#D9F431"/>
<path d="M13.0056 14.9219C13.1547 15.2247 13.3864 15.4793 13.6739 15.6562C13.9614 15.8332 14.2931 15.9253 14.6306 15.9219C15.3119 15.9219 15.7475 15.5812 15.7475 15.1094C15.7475 14.5469 15.3 14.3456 14.55 14.0175L14.1388 13.8413C12.9513 13.3356 12.1638 12.7025 12.1638 11.3637C12.1638 10.1306 13.1013 9.19125 14.5719 9.19125C15.048 9.15687 15.5236 9.26342 15.9395 9.4976C16.3554 9.73179 16.6932 10.0832 16.9106 10.5081L15.625 11.33C15.5413 11.1193 15.3955 10.9391 15.2069 10.8132C15.0184 10.6873 14.7961 10.6216 14.5694 10.625C14.4705 10.6151 14.3706 10.6259 14.2761 10.6567C14.1816 10.6876 14.0946 10.7377 14.0206 10.8041C13.9465 10.8704 13.8871 10.9514 13.8462 11.042C13.8052 11.1325 13.7835 11.2306 13.7825 11.33C13.7825 11.8231 14.0881 12.0231 14.7938 12.33L15.205 12.5063C16.6025 13.1056 17.3925 13.7162 17.3925 15.0894C17.3925 16.57 16.2294 17.3813 14.6675 17.3813C14.059 17.42 13.4522 17.2819 12.9204 16.9834C12.3886 16.685 11.9546 16.239 11.6706 15.6994L13.0056 14.9219ZM7.19626 15.0644C7.45439 15.5225 7.68939 15.91 8.25439 15.91C8.79439 15.91 9.13564 15.6988 9.13564 14.8769V9.285H10.78V14.8987C10.78 16.6012 9.78001 17.3763 8.32439 17.3763C7.80986 17.4044 7.29886 17.2761 6.85857 17.0084C6.41827 16.7407 6.0693 16.346 5.85751 15.8763L7.19626 15.0644Z" fill="#120F1A"/>
</svg>
