<svg width="20" height="21" viewBox="0 0 20 21" fill="none" xmlns="http://www.w3.org/2000/svg">
<g clip-path="url(#clip0_13_73)">
<path d="M9.64351 0.499996C9.49684 0.499996 9.38517 0.50083 9.34517 0.50583C9.24415 0.515931 9.14303 0.525098 9.04184 0.53333C6.20267 0.78833 3.54184 2.32083 1.85684 4.67666C0.924983 5.96961 0.319196 7.46849 0.0910071 9.04583C0.0110071 9.595 0.00100708 9.7575 0.00100708 10.5017C0.00100708 11.2458 0.0110071 11.4092 0.0910071 11.9583C0.63434 15.7133 3.30767 18.8683 6.93184 20.0375C7.58101 20.2458 8.26517 20.3892 9.04351 20.475C9.34601 20.5083 10.656 20.5083 10.9593 20.475C12.3018 20.3267 13.4402 19.9942 14.5618 19.4217C14.7343 19.3333 14.7677 19.31 14.7443 19.29C14.7277 19.2792 13.9943 18.2958 13.1152 17.1067L11.516 14.9467L9.51267 11.9817C8.84618 10.9896 8.17338 10.0018 7.49434 9.01833C7.48684 9.01666 7.47934 10.3342 7.47517 11.9433C7.46934 14.76 7.46684 14.8725 7.43184 14.9392C7.39787 15.0173 7.33694 15.0806 7.26017 15.1175C7.19767 15.1483 7.14351 15.1542 6.84767 15.1542H6.50851L6.41851 15.0975C6.36287 15.0626 6.31767 15.0134 6.28767 14.955L6.24601 14.8667L6.25101 10.9475L6.25684 7.02666L6.31684 6.95C6.35781 6.90208 6.40689 6.86174 6.46184 6.83083C6.54184 6.79166 6.57351 6.78833 6.91184 6.78833C7.31017 6.78833 7.37684 6.80333 7.48017 6.91666C8.29113 8.12353 9.0953 9.33494 9.89267 10.5508C11.2072 12.543 12.5224 14.5347 13.8385 16.5258L15.4218 18.925L15.5018 18.8725C16.2641 18.366 16.9553 17.7598 17.5568 17.07C18.8167 15.6279 19.6338 13.8531 19.9102 11.9583C19.9902 11.4083 20.0002 11.2467 20.0002 10.5017C20.0002 9.7575 19.9902 9.595 19.9102 9.04583C19.3668 5.29083 16.6943 2.13583 13.0702 0.966663C12.3926 0.751232 11.6948 0.605205 10.9877 0.53083C10.5402 0.509652 10.0923 0.499371 9.64434 0.499996H9.64351ZM13.0343 6.51416C13.3235 6.51416 13.3743 6.51833 13.4393 6.55333C13.4859 6.57683 13.5273 6.60933 13.5612 6.64895C13.5951 6.68858 13.6208 6.73453 13.6368 6.78416C13.6518 6.83416 13.656 7.92166 13.6518 10.3708L13.6468 13.8858L13.0268 12.9358L12.4052 11.9858V9.43083C12.4052 7.77916 12.4135 6.85 12.4243 6.80583C12.4383 6.75371 12.4627 6.70496 12.4961 6.66256C12.5295 6.62016 12.5711 6.58498 12.6185 6.55916C12.6985 6.5175 12.7268 6.51416 13.0352 6.51416H13.0343Z" fill="white"/>
</g>
<defs>
<clipPath id="clip0_13_73">
<rect width="20" height="20" fill="white" transform="translate(0 0.5)"/>
</clipPath>
</defs>
</svg>
