<svg width="20" height="20" viewBox="0 0 20 20" fill="none" xmlns="http://www.w3.org/2000/svg">
<path d="M9.9675 1.25H10.0081C10.2163 1.34916 10.4191 1.45932 10.6156 1.58L17.4019 5.48375C17.4894 5.53046 17.5609 5.60239 17.607 5.69021C17.6531 5.77803 17.6718 5.87768 17.6606 5.97625C17.6556 8.71938 17.6606 11.4619 17.6575 14.2037C17.6281 14.3346 17.5481 14.4485 17.435 14.5206C15.0296 15.9056 12.624 17.2898 10.2181 18.6731C10.1598 18.7176 10.0896 18.7435 10.0164 18.7476C9.94317 18.7518 9.87043 18.7339 9.8075 18.6962C7.39917 17.3154 4.99313 15.9321 2.58938 14.5463C2.51126 14.5093 2.44583 14.4501 2.40133 14.376C2.35684 14.3019 2.33528 14.2163 2.33938 14.13V5.90312C2.33348 5.81719 2.35335 5.73144 2.39643 5.65685C2.43952 5.58226 2.50387 5.52221 2.58125 5.48438C4.84042 4.18521 7.09959 2.88521 9.35875 1.58438C9.56 1.46938 9.7575 1.3475 9.9675 1.25Z" fill="#019639"/>
<path d="M5.47938 6.58625V13.3731C5.47649 13.4984 5.4986 13.623 5.54443 13.7397C5.59025 13.8563 5.65886 13.9627 5.74625 14.0525C5.91376 14.218 6.13295 14.321 6.36724 14.3445C6.60154 14.3679 6.83679 14.3103 7.03375 14.1812C7.16559 14.0917 7.27353 13.9712 7.34815 13.8303C7.42277 13.6895 7.46181 13.5325 7.46188 13.3731C7.46188 11.7356 7.45875 10.0981 7.46188 8.46062C8.95479 10.2481 10.4508 12.0331 11.95 13.8156C12.1583 14.0266 12.4162 14.1819 12.7001 14.2673C12.9841 14.3527 13.2849 14.3655 13.575 14.3044C13.7799 14.264 13.9664 14.159 14.1071 14.0048C14.2479 13.8505 14.3354 13.6552 14.3569 13.4475C14.3602 11.1387 14.3602 8.83021 14.3569 6.52187C14.3354 6.27547 14.2223 6.04608 14.0399 5.87897C13.8576 5.71186 13.6192 5.61916 13.3719 5.61916C13.1245 5.61916 12.8862 5.71186 12.7038 5.87897C12.5215 6.04608 12.4084 6.27547 12.3869 6.52187C12.3869 8.18562 12.3769 9.8475 12.3869 11.5106C10.9206 9.78187 9.4725 8.03812 8.01188 6.30312C7.81931 6.0562 7.56438 5.8651 7.27336 5.74953C6.98233 5.63396 6.66575 5.59809 6.35625 5.64562C6.12179 5.67172 5.90444 5.78095 5.74357 5.9535C5.58271 6.12606 5.48898 6.35054 5.47938 6.58625Z" fill="white"/>
</svg>
