<svg width="20" height="21" viewBox="0 0 20 21" fill="none" xmlns="http://www.w3.org/2000/svg">
<path d="M10 2.04167C9.775 2.04167 9.54167 2.10001 9.35 2.20834L3.15 5.79167C2.75 6.02501 2.5 6.45834 2.5 6.925V14.075C2.5 14.5417 2.75 14.975 3.15 15.2083L4.775 16.1417C5.56667 16.525 5.83333 16.5333 6.2 16.5333C7.36667 16.5333 8.04167 15.825 8.04167 14.5917V7.53334C8.04167 7.43334 7.95833 7.35001 7.85833 7.35001H7.08333C6.975 7.35001 6.89167 7.43334 6.89167 7.53334V14.5917C6.89167 15.1417 6.325 15.6833 5.41667 15.225L3.70833 14.25C3.68028 14.2302 3.65733 14.204 3.64139 14.1736C3.62546 14.1431 3.61698 14.1094 3.61667 14.075V6.925C3.61667 6.85001 3.65 6.78334 3.70833 6.75001L9.90833 3.17501C9.95833 3.14167 10.0417 3.14167 10.0917 3.17501L16.2917 6.75001C16.35 6.78334 16.3833 6.85001 16.3833 6.925V14.075C16.3833 14.1417 16.35 14.2083 16.2917 14.25L10.0917 17.825C10.0417 17.8583 9.95833 17.8583 9.9 17.825L8.33333 16.875C8.26667 16.85 8.2 16.8417 8.15833 16.8667C7.71667 17.1167 7.63333 17.1667 7.225 17.2917C7.125 17.325 6.96667 17.3833 7.28333 17.5583L9.35 18.7833C9.55 18.9 9.76667 18.9583 10 18.9583C10.2333 18.9583 10.45 18.9 10.65 18.7833L16.85 15.2083C17.25 14.975 17.5 14.5417 17.5 14.075V6.925C17.5 6.45834 17.25 6.02501 16.85 5.79167L10.65 2.20834C10.4583 2.10001 10.2333 2.04167 10 2.04167ZM11.6667 7.16667C9.9 7.16667 8.84167 7.90834 8.84167 9.15834C8.84167 10.5 9.89167 10.8917 11.5917 11.0583C13.6167 11.2583 13.775 11.5583 13.775 11.9583C13.775 12.65 13.2167 12.9417 11.9167 12.9417C10.2667 12.9417 9.91667 12.5333 9.79167 11.7167C9.78289 11.6745 9.7599 11.6365 9.72653 11.6092C9.69317 11.5819 9.65144 11.5669 9.60833 11.5667H8.80833C8.70833 11.5667 8.63333 11.6417 8.63333 11.75C8.63333 12.7833 9.2 14.0333 11.9167 14.0333C13.875 14.0333 15 13.2583 15 11.9083C15 10.5667 14.1 10.2167 12.1917 9.95834C10.2667 9.70834 10.075 9.57501 10.075 9.125C10.075 8.75 10.2417 8.25001 11.6667 8.25001C12.9167 8.25001 13.4083 8.525 13.6 9.38334C13.6167 9.46667 13.6917 9.525 13.775 9.525H14.5833C14.625 9.525 14.675 9.50834 14.7083 9.46667C14.7417 9.43334 14.7667 9.38334 14.75 9.33334C14.6333 7.85001 13.65 7.16667 11.6667 7.16667Z" fill="#68A063"/>
</svg>
