<svg width="16" height="20" viewBox="0 0 16 20" fill="none" xmlns="http://www.w3.org/2000/svg">
<g clip-path="url(#clip0_13_134)">
<path d="M15.8946 15.2199L9.25 1.10928C9.16743 0.935661 9.03946 0.787589 8.87963 0.680736C8.7198 0.573883 8.53406 0.512224 8.34206 0.502284C8.1497 0.489393 7.95748 0.529492 7.78631 0.61822C7.61515 0.706948 7.47159 0.840909 7.37125 1.00553L0.164559 12.678C0.0549774 12.8542 -0.00209003 13.058 4.64174e-05 13.2656C0.00218286 13.4731 0.0634346 13.6757 0.176621 13.8497L3.7 19.306C3.83329 19.5108 4.02924 19.667 4.2586 19.7514C4.48796 19.8357 4.73844 19.8437 4.97268 19.774L15.1976 16.7495C15.3516 16.7045 15.4941 16.627 15.6155 16.5222C15.7369 16.4173 15.8344 16.2877 15.9014 16.1419C15.9674 15.9969 16.0011 15.8393 16 15.68C15.9989 15.5206 15.9631 15.3635 15.8951 15.2194L15.8946 15.2199ZM14.4069 15.8251L5.7305 18.3907C5.46581 18.4695 5.21175 18.24 5.26681 17.9729L8.36668 3.13016C8.42462 2.85247 8.80812 2.80847 8.92937 3.06547L14.6677 15.2513C14.6931 15.3056 14.7064 15.3647 14.7067 15.4247C14.707 15.4846 14.6943 15.5439 14.6695 15.5984C14.6446 15.653 14.6082 15.7015 14.5628 15.7406C14.5175 15.7797 14.4641 15.8085 14.4065 15.825H14.4069V15.8251Z" fill="white"/>
</g>
<defs>
<clipPath id="clip0_13_134">
<rect width="16" height="19.375" fill="white" transform="translate(0 0.5)"/>
</clipPath>
</defs>
</svg>
