<svg width="20" height="21" viewBox="0 0 20 21" fill="none" xmlns="http://www.w3.org/2000/svg">
<path d="M9.71428 8.925C10.5481 8.925 11.2281 9.625 11.2281 10.5C11.2281 11.3333 10.5481 12.0417 9.71428 12.0417C8.88047 12.0417 8.20047 11.3333 8.20047 10.5C8.20047 9.625 8.88047 8.925 9.71428 8.925ZM5.96619 17.1667C6.47619 17.4833 7.59333 17 8.88047 15.75C8.45952 15.2583 8.04666 14.725 7.65809 14.1667C7.00574 14.1024 6.35719 14.0023 5.71524 13.8667C5.30238 15.65 5.45619 16.875 5.96619 17.1667ZM6.54095 12.3833L6.30619 11.9583C6.21714 12.2 6.12809 12.4417 6.07143 12.675C6.29 12.725 6.53285 12.7667 6.78381 12.8083L6.54095 12.3833ZM11.8352 11.75L12.4909 10.5L11.8352 9.25C11.5924 8.80834 11.3333 8.41667 11.0986 8.025C10.6614 8 10.2 8 9.71428 8C9.22857 8 8.76714 8 8.33 8.025C8.09524 8.41667 7.83619 8.80834 7.59333 9.25L6.93762 10.5L7.59333 11.75C7.83619 12.1917 8.09524 12.5833 8.33 12.975C8.76714 13 9.22857 13 9.71428 13C10.2 13 10.6614 13 11.0986 12.975C11.3333 12.5833 11.5924 12.1917 11.8352 11.75ZM9.71428 6.15C9.56047 6.33334 9.39857 6.525 9.23666 6.75H10.1919C10.03 6.525 9.86809 6.33334 9.71428 6.15ZM9.71428 14.85C9.86809 14.6667 10.03 14.475 10.1919 14.25H9.23666C9.39857 14.475 9.56047 14.6667 9.71428 14.85ZM13.4543 3.83334C12.9524 3.51667 11.8352 4 10.5481 5.25C10.969 5.74167 11.3819 6.275 11.7705 6.83334C12.4343 6.9 13.09 7 13.7133 7.13334C14.1262 5.35 13.9724 4.125 13.4543 3.83334ZM12.8876 8.61667L13.1224 9.04167C13.2114 8.8 13.3005 8.55834 13.3571 8.325C13.1386 8.275 12.8957 8.23334 12.6448 8.19167L12.8876 8.61667ZM14.0614 2.74167C15.2514 3.44167 15.3809 5.28334 14.879 7.43334C16.9352 8.05834 18.4167 9.09167 18.4167 10.5C18.4167 11.9083 16.9352 12.9417 14.879 13.5667C15.3809 15.7167 15.2514 17.5583 14.0614 18.2583C12.8795 18.9583 11.2686 18.1583 9.71428 16.6333C8.16 18.1583 6.54904 18.9583 5.35904 18.2583C4.17714 17.5583 4.04762 15.7167 4.54952 13.5667C2.49333 12.9417 1.0119 11.9083 1.0119 10.5C1.0119 9.09167 2.49333 8.05834 4.54952 7.43334C4.04762 5.28334 4.17714 3.44167 5.35904 2.74167C6.54904 2.04167 8.16 2.84167 9.71428 4.36667C11.2686 2.84167 12.8795 2.04167 14.0614 2.74167ZM13.8267 10.5C14.1019 11.125 14.3448 11.75 14.5471 12.3833C16.2471 11.8583 17.2024 11.1083 17.2024 10.5C17.2024 9.89167 16.2471 9.14167 14.5471 8.61667C14.3448 9.25 14.1019 9.875 13.8267 10.5ZM5.6019 10.5C5.32666 9.875 5.08381 9.25 4.88143 8.61667C3.18143 9.14167 2.22619 9.89167 2.22619 10.5C2.22619 11.1083 3.18143 11.8583 4.88143 12.3833C5.08381 11.75 5.32666 11.125 5.6019 10.5ZM12.8876 12.3833L12.6448 12.8083C12.8957 12.7667 13.1386 12.725 13.3571 12.675C13.3005 12.4417 13.2114 12.2 13.1224 11.9583L12.8876 12.3833ZM10.5481 15.75C11.8352 17 12.9524 17.4833 13.4543 17.1667C13.9724 16.875 14.1262 15.65 13.7133 13.8667C13.09 14 12.4343 14.1 11.7705 14.1667C11.3819 14.725 10.969 15.2583 10.5481 15.75ZM6.54095 8.61667L6.78381 8.19167C6.53285 8.23334 6.29 8.275 6.07143 8.325C6.12809 8.55834 6.21714 8.8 6.30619 9.04167L6.54095 8.61667ZM8.88047 5.25C7.59333 4 6.47619 3.51667 5.96619 3.83334C5.45619 4.125 5.30238 5.35 5.71524 7.13334C6.35719 6.99775 7.00574 6.8976 7.65809 6.83334C8.04666 6.275 8.45952 5.74167 8.88047 5.25Z" fill="#61DBFB"/>
</svg>
