<svg width="20" height="20" viewBox="0 0 20 20" fill="none" xmlns="http://www.w3.org/2000/svg">
<path d="M2.5 2.5H17.5V17.5H2.5V2.5ZM11.425 14.8833C11.8417 15.7 12.6833 16.325 14 16.325C15.3333 16.325 16.3333 15.6333 16.3333 14.3583C16.3333 13.1833 15.6583 12.6583 14.4583 12.1417L14.1083 11.9917C13.5 11.7333 13.2417 11.5583 13.2417 11.1417C13.2417 10.8 13.5 10.5333 13.9167 10.5333C14.3167 10.5333 14.5833 10.7083 14.825 11.1417L15.9167 10.4167C15.4583 9.61667 14.8083 9.30833 13.9167 9.30833C12.6583 9.30833 11.85 10.1083 11.85 11.1667C11.85 12.3167 12.525 12.8583 13.5417 13.2917L13.8917 13.4417C14.5417 13.725 14.925 13.9 14.925 14.3833C14.925 14.7833 14.55 15.075 13.9667 15.075C13.275 15.075 12.875 14.7167 12.575 14.2167L11.425 14.8833ZM10.8333 9.375H6.66667V10.625H7.91667V16.6667H9.375V10.625H10.8333V9.375Z" fill="#2F74FB"/>
</svg>
