<svg width="20" height="21" viewBox="0 0 20 21" fill="none" xmlns="http://www.w3.org/2000/svg">
<path d="M18.6775 4.34125L10.4638 19.0288C10.4252 19.0978 10.3689 19.1554 10.3008 19.1956C10.2326 19.2358 10.155 19.2571 10.0759 19.2574C9.9968 19.2578 9.91903 19.237 9.85056 19.1974C9.78208 19.1578 9.72538 19.1006 9.68626 19.0319L1.31001 4.3425C1.26789 4.2688 1.24768 4.18461 1.25173 4.09982C1.25578 4.01503 1.28393 3.93315 1.33288 3.8638C1.38183 3.79444 1.44954 3.74049 1.52808 3.70827C1.60661 3.67604 1.6927 3.66689 1.77626 3.68188L9.99876 5.15188C10.051 5.16129 10.1046 5.16129 10.1569 5.15188L18.2075 3.68438C18.2907 3.66917 18.3766 3.67793 18.455 3.70965C18.5335 3.74137 18.6013 3.79474 18.6505 3.86352C18.6998 3.93231 18.7285 4.01368 18.7333 4.09816C18.738 4.18263 18.7187 4.26672 18.6775 4.34063V4.34125Z" fill="url(#paint0_linear_13_109)"/>
<path d="M13.915 1.75437L7.8375 2.945C7.78885 2.9545 7.74475 2.97993 7.71215 3.01727C7.67956 3.05462 7.66033 3.10176 7.6575 3.15125L7.28375 9.46625C7.28169 9.50089 7.28773 9.53554 7.30141 9.56744C7.31509 9.59933 7.33601 9.6276 7.36253 9.64999C7.38905 9.67238 7.42042 9.68828 7.45416 9.69642C7.4879 9.70455 7.52307 9.70471 7.55687 9.69687L9.24875 9.30625C9.2852 9.29783 9.32318 9.2987 9.3592 9.3088C9.39522 9.3189 9.42813 9.33789 9.45489 9.36403C9.48165 9.39017 9.50141 9.42261 9.51235 9.45839C9.52329 9.49416 9.52506 9.53211 9.5175 9.56875L9.015 12.0306C9.00725 12.0685 9.00948 12.1078 9.02148 12.1446C9.03348 12.1813 9.05484 12.2144 9.08345 12.2404C9.11207 12.2664 9.14696 12.2846 9.18471 12.293C9.22245 12.3015 9.26175 12.3 9.29875 12.2887L10.3437 11.9712C10.3808 11.9599 10.4202 11.9584 10.458 11.9669C10.4958 11.9754 10.5307 11.9936 10.5594 12.0197C10.588 12.0458 10.6094 12.079 10.6213 12.1158C10.6332 12.1527 10.6354 12.1921 10.6275 12.23L9.82813 16.0969C9.77813 16.3387 10.1 16.4706 10.2344 16.2637L10.3238 16.125L15.2769 6.24062C15.2955 6.20338 15.3033 6.16168 15.2994 6.12023C15.2955 6.07878 15.2802 6.03925 15.255 6.00608C15.2298 5.97292 15.1959 5.94746 15.157 5.93258C15.1181 5.9177 15.0759 5.91399 15.035 5.92187L13.2931 6.2575C13.2556 6.26467 13.2169 6.26211 13.1807 6.25005C13.1445 6.23799 13.112 6.21684 13.0862 6.18862C13.0605 6.1604 13.0425 6.12606 13.0339 6.08888C13.0252 6.05169 13.0262 6.01291 13.0369 5.97625L14.1731 2.035C14.1838 1.99821 14.1849 1.95929 14.1762 1.92198C14.1675 1.88467 14.1493 1.85022 14.1235 1.82197C14.0976 1.79371 14.0649 1.77259 14.0285 1.76064C13.9921 1.74869 13.9532 1.74632 13.9156 1.75375L13.915 1.75437Z" fill="url(#paint1_linear_13_109)"/>
<defs>
<linearGradient id="paint0_linear_13_109" x1="1.10533" y1="3.15679" x2="11.3273" y2="17.0391" gradientUnits="userSpaceOnUse">
<stop stop-color="#41D1FF"/>
<stop offset="1" stop-color="#BD34FE"/>
</linearGradient>
<linearGradient id="paint1_linear_13_109" x1="9.52623" y1="2.07736" x2="11.3753" y2="14.762" gradientUnits="userSpaceOnUse">
<stop stop-color="#FFEA83"/>
<stop offset="0.083" stop-color="#FFDD35"/>
<stop offset="1" stop-color="#FFA800"/>
</linearGradient>
</defs>
</svg>
