<svg width="32" height="32" viewBox="0 0 32 32" fill="none" xmlns="http://www.w3.org/2000/svg">
<rect width="32" height="32" rx="8" fill="#131313"/>
<path d="M8.856 20L6.252 13.76H6.888L9.18 19.364L11.484 13.76H12.084L9.48 20H8.856ZM12.6329 16.892C12.6329 16.308 12.7569 15.772 13.0049 15.284C13.2529 14.796 13.5929 14.404 14.0249 14.108C14.4569 13.804 14.9489 13.652 15.5009 13.652C16.0449 13.652 16.5249 13.796 16.9409 14.084C17.3649 14.372 17.6969 14.716 17.9369 15.116V11.24H18.5369V19.208C18.5369 19.304 18.5569 19.376 18.5969 19.424C18.6449 19.472 18.7089 19.5 18.7889 19.508V20C18.6609 20.016 18.5649 20.02 18.5009 20.012C18.3569 19.988 18.2369 19.92 18.1409 19.808C18.0449 19.696 17.9969 19.576 17.9969 19.448V18.752C17.7409 19.168 17.3969 19.5 16.9649 19.748C16.5329 19.996 16.0889 20.12 15.6329 20.12C15.2009 20.12 14.8009 20.032 14.4329 19.856C14.0649 19.672 13.7449 19.428 13.4729 19.124C13.2089 18.82 13.0009 18.476 12.8489 18.092C12.7049 17.708 12.6329 17.308 12.6329 16.892ZM17.9369 17.9V15.848C17.8249 15.544 17.6449 15.268 17.3969 15.02C17.1489 14.764 16.8689 14.564 16.5569 14.42C16.2449 14.268 15.9369 14.192 15.6329 14.192C15.2729 14.192 14.9449 14.268 14.6489 14.42C14.3609 14.572 14.1089 14.776 13.8929 15.032C13.6849 15.288 13.5249 15.58 13.4129 15.908C13.3009 16.228 13.2449 16.56 13.2449 16.904C13.2449 17.256 13.3089 17.596 13.4369 17.924C13.5649 18.244 13.7409 18.532 13.9649 18.788C14.1969 19.036 14.4609 19.232 14.7569 19.376C15.0609 19.512 15.3889 19.58 15.7409 19.58C15.9569 19.58 16.1849 19.536 16.4249 19.448C16.6729 19.36 16.9049 19.24 17.1209 19.088C17.3449 18.928 17.5289 18.748 17.6729 18.548C17.8249 18.34 17.9129 18.124 17.9369 17.9ZM22.4157 20.12C21.9197 20.12 21.4597 20.036 21.0357 19.868C20.6117 19.7 20.2397 19.444 19.9197 19.1L20.1957 18.68C20.5397 19.008 20.8877 19.248 21.2397 19.4C21.5917 19.544 21.9757 19.616 22.3917 19.616C22.9277 19.616 23.3597 19.504 23.6877 19.28C24.0237 19.056 24.1917 18.744 24.1917 18.344C24.1917 18.072 24.1117 17.864 23.9517 17.72C23.7997 17.568 23.5757 17.448 23.2797 17.36C22.9917 17.264 22.6397 17.164 22.2237 17.06C21.7997 16.948 21.4397 16.832 21.1437 16.712C20.8557 16.592 20.6397 16.436 20.4957 16.244C20.3517 16.052 20.2797 15.792 20.2797 15.464C20.2797 15.056 20.3797 14.72 20.5797 14.456C20.7877 14.184 21.0637 13.984 21.4077 13.856C21.7597 13.72 22.1477 13.652 22.5717 13.652C23.0597 13.652 23.4837 13.732 23.8437 13.892C24.2117 14.052 24.4917 14.264 24.6837 14.528L24.3597 14.912C24.1597 14.656 23.8997 14.468 23.5797 14.348C23.2597 14.22 22.9077 14.156 22.5237 14.156C22.2357 14.156 21.9637 14.196 21.7077 14.276C21.4517 14.356 21.2437 14.488 21.0837 14.672C20.9317 14.848 20.8557 15.088 20.8557 15.392C20.8557 15.632 20.9117 15.82 21.0237 15.956C21.1437 16.092 21.3197 16.204 21.5517 16.292C21.7837 16.372 22.0717 16.46 22.4157 16.556C22.9037 16.676 23.3237 16.8 23.6757 16.928C24.0277 17.056 24.2997 17.224 24.4917 17.432C24.6837 17.632 24.7797 17.916 24.7797 18.284C24.7797 18.852 24.5637 19.3 24.1317 19.628C23.6997 19.956 23.1277 20.12 22.4157 20.12Z" fill="#6F6F6F"/>
</svg>
